<?xml version="1.0" encoding="UTF-8"?><svg xmlns="http://www.w3.org/2000/svg" viewBox="0 0 48.94 64"><defs><style>.d{fill:#212121;}.e{fill:#1e90ff;}.f{fill:#e9f4ff;}</style></defs><g id="a"/><g id="b"><g id="c"><g><polygon class="f" points="36.94 3 2.94 3 2.94 61 45.94 61 45.94 13 36.94 3"/><path class="e" d="M48.5,11.63L37.5,.45c-.28-.29-.67-.45-1.06-.45H1.5C.67,0,0,.68,0,1.51V62.49c0,.84,.67,1.51,1.5,1.51H47.44c.83,0,1.5-.68,1.5-1.51V12.69c0-.4-.16-.78-.44-1.06Zm-2.73,1.52c-.11-.02-.22-.04-.33-.04h-9.5V3.35c0-.08-.01-.15-.02-.22l9.85,10.01ZM3,60.98V3.02h29.97c-.02,.11-.04,.21-.04,.33V14.61c0,.84,.67,1.51,1.5,1.51h11c.18,0,.34-.04,.5-.09V60.98H3Z"/><g><path class="d" d="M13.74,26.55c-.71-.38-1.56-.57-2.57-.57H5.94v13.27h2.8v-4.3h2.36c1.02,0,1.89-.19,2.61-.56,.72-.38,1.27-.9,1.65-1.58s.57-1.45,.57-2.33-.19-1.66-.56-2.34-.91-1.2-1.62-1.59Zm-.97,5.08c-.18,.33-.44,.6-.79,.78s-.8,.28-1.34,.28h-1.9v-4.43h1.89c.54,0,.99,.09,1.35,.28s.62,.44,.79,.77,.26,.72,.26,1.16-.09,.82-.26,1.16Z"/><polygon class="d" points="26.06 34.32 25.94 34.32 20.22 25.98 17.75 25.98 17.75 39.25 20.56 39.25 20.56 30.9 20.66 30.9 26.43 39.25 28.85 39.25 28.85 25.98 26.06 25.98 26.06 34.32"/><path class="d" d="M37.39,32.15v2.11h2.84c-.01,.53-.12,.99-.35,1.39-.24,.42-.58,.74-1.04,.96-.45,.23-.99,.34-1.63,.34-.7,0-1.31-.17-1.82-.51-.52-.34-.91-.83-1.19-1.48s-.42-1.43-.42-2.36,.14-1.71,.43-2.35,.68-1.13,1.2-1.47c.51-.34,1.11-.5,1.78-.5,.36,0,.69,.05,.99,.14,.3,.09,.57,.22,.8,.39,.24,.17,.44,.38,.6,.62,.16,.24,.29,.52,.38,.84h2.85c-.09-.66-.3-1.26-.62-1.8-.32-.54-.73-1.02-1.23-1.41-.5-.4-1.08-.71-1.73-.92-.65-.22-1.35-.33-2.1-.33-.88,0-1.69,.15-2.44,.46-.75,.31-1.41,.75-1.98,1.34-.57,.59-1.01,1.3-1.32,2.15s-.47,1.8-.47,2.88c0,1.4,.26,2.61,.79,3.62,.52,1.02,1.26,1.8,2.2,2.35,.94,.55,2.03,.83,3.28,.83,1.12,0,2.1-.23,2.97-.68,.86-.45,1.54-1.09,2.03-1.93,.49-.83,.74-1.84,.74-3v-1.67h-5.55Z"/></g></g></g></g></svg>