<?xml version="1.0" encoding="UTF-8"?><svg xmlns="http://www.w3.org/2000/svg" viewBox="0 0 48.94 64"><defs><style>.d{fill:#212121;}.e{fill:#1e90ff;}.f{fill:#e9f4ff;}</style></defs><g id="a"/><g id="b"><g id="c"><g><polygon class="f" points="36.94 3 2.94 3 2.94 61 45.94 61 45.94 13 36.94 3"/><path class="e" d="M48.5,11.63L37.5,.45c-.28-.29-.67-.45-1.06-.45H1.5C.67,0,0,.68,0,1.51V62.49c0,.84,.67,1.51,1.5,1.51H47.44c.83,0,1.5-.68,1.5-1.51V12.69c0-.4-.16-.78-.44-1.06Zm-2.73,1.52c-.11-.02-.22-.04-.33-.04h-9.5V3.35c0-.08-.01-.15-.02-.22l9.85,10.01ZM3,60.98V3.02h29.97c-.02,.11-.04,.21-.04,.33V14.61c0,.84,.67,1.51,1.5,1.51h11c.18,0,.34-.04,.5-.09V60.98H3Z"/><g><path class="d" d="M13.66,26.72c-.91-.5-1.99-.75-3.25-.75H5.94v12.51h4.43c1.27,0,2.36-.25,3.28-.75,.91-.5,1.62-1.22,2.11-2.16,.49-.94,.74-2.06,.74-3.36s-.24-2.41-.74-3.35c-.49-.93-1.19-1.65-2.1-2.15Zm-.21,7.78c-.27,.59-.67,1.02-1.21,1.3-.54,.28-1.19,.42-1.98,.42h-1.68v-7.98h1.69c.78,0,1.44,.14,1.97,.42s.94,.71,1.21,1.29c.27,.59,.41,1.34,.41,2.27s-.14,1.69-.41,2.28Z"/><path class="d" d="M27.07,26.55c-.89-.5-1.88-.75-2.98-.75s-2.11,.25-2.99,.75c-.88,.5-1.58,1.23-2.09,2.19s-.77,2.12-.77,3.48,.26,2.52,.77,3.48,1.21,1.69,2.09,2.19c.88,.51,1.88,.76,2.99,.76s2.1-.25,2.98-.75c.89-.5,1.59-1.23,2.1-2.19s.77-2.12,.77-3.48-.26-2.52-.77-3.48-1.22-1.69-2.1-2.19Zm-.2,7.91c-.26,.61-.63,1.07-1.11,1.38s-1.03,.47-1.67,.47-1.2-.16-1.67-.47c-.48-.31-.85-.77-1.11-1.38-.26-.61-.39-1.35-.39-2.24s.13-1.63,.39-2.24c.26-.61,.63-1.07,1.11-1.38,.48-.31,1.03-.47,1.67-.47s1.2,.16,1.67,.47,.85,.77,1.11,1.38,.39,1.35,.39,2.24-.13,1.63-.39,2.24Z"/><path class="d" d="M39.93,35.1c-.16,.26-.35,.48-.59,.66-.24,.18-.51,.32-.81,.41-.3,.09-.63,.14-.99,.14-.63,0-1.19-.15-1.67-.46-.48-.31-.85-.77-1.12-1.37s-.4-1.36-.4-2.25,.13-1.6,.4-2.21,.64-1.07,1.12-1.39c.48-.32,1.04-.48,1.69-.48,.36,0,.69,.05,1,.15s.58,.25,.82,.44c.24,.19,.43,.42,.58,.69,.15,.27,.25,.58,.3,.93h2.68c-.09-.73-.28-1.37-.58-1.93-.3-.56-.7-1.04-1.18-1.43-.48-.39-1.03-.68-1.65-.89-.62-.2-1.29-.31-2.02-.31-1.1,0-2.09,.25-2.97,.75-.88,.5-1.58,1.23-2.09,2.19s-.77,2.12-.77,3.48,.25,2.52,.76,3.48c.51,.96,1.2,1.69,2.08,2.19,.88,.51,1.87,.76,2.99,.76,.8,0,1.52-.12,2.16-.36,.64-.24,1.19-.57,1.65-.99,.46-.42,.83-.89,1.11-1.42s.45-1.08,.52-1.66h-2.68c-.06,.32-.17,.62-.33,.88Z"/></g></g></g></g></svg>