<?xml version="1.0" encoding="UTF-8"?><svg xmlns="http://www.w3.org/2000/svg" viewBox="0 0 48.94 64"><defs><style>.d{fill:#212121;}.e{fill:#1e90ff;}.f{fill:#e9f4ff;}</style></defs><g id="a"/><g id="b"><g id="c"><g><polygon class="f" points="36.94 3 2.94 3 2.94 61 45.94 61 45.94 13 36.94 3"/><g><path class="d" d="M14.47,25.09c-.77-.42-1.71-.63-2.81-.63H5.94v14.49h3.06v-4.7h2.58c1.11,0,2.06-.21,2.85-.62,.79-.41,1.39-.98,1.8-1.72,.42-.74,.62-1.59,.62-2.55s-.2-1.81-.61-2.55c-.41-.74-1-1.32-1.77-1.73Zm-1.06,5.55c-.19,.37-.48,.65-.86,.86-.38,.21-.87,.31-1.46,.31h-2.08v-4.83h2.07c.59,0,1.09,.1,1.47,.3,.39,.2,.68,.48,.87,.84,.19,.36,.29,.78,.29,1.26s-.1,.9-.29,1.26Z"/><path class="d" d="M27.79,25.33c-1.05-.58-2.31-.87-3.77-.87h-5.18v14.49h5.14c1.47,0,2.74-.29,3.8-.87,1.06-.58,1.87-1.41,2.44-2.5,.57-1.09,.85-2.38,.85-3.89s-.28-2.8-.85-3.88c-.57-1.08-1.38-1.91-2.43-2.49Zm-.24,9.01c-.31,.68-.78,1.18-1.4,1.51-.62,.32-1.38,.48-2.29,.48h-1.95v-9.24h1.95c.91,0,1.67,.16,2.29,.48,.62,.32,1.08,.82,1.4,1.5,.31,.68,.47,1.55,.47,2.63s-.16,1.96-.47,2.64Z"/><polygon class="d" points="42.94 26.99 42.94 24.46 33.34 24.46 33.34 38.95 36.4 38.95 36.4 32.97 42.3 32.97 42.3 30.44 36.4 30.44 36.4 26.99 42.94 26.99"/></g><path class="e" d="M48.5,11.63L37.5,.45c-.28-.29-.67-.45-1.06-.45H1.5C.67,0,0,.68,0,1.51V62.49c0,.84,.67,1.51,1.5,1.51H47.44c.83,0,1.5-.68,1.5-1.51V12.69c0-.4-.16-.78-.44-1.06Zm-2.73,1.52c-.11-.02-.22-.04-.33-.04h-9.5V3.35c0-.08-.01-.15-.02-.22l9.85,10.01ZM3,60.98V3.02h29.97c-.02,.11-.04,.21-.04,.33V14.61c0,.84,.67,1.51,1.5,1.51h11c.18,0,.34-.04,.5-.09V60.98H3Z"/></g></g></g></svg>