<?xml version="1.0" encoding="UTF-8"?><svg xmlns="http://www.w3.org/2000/svg" viewBox="0 0 48.94 64"><defs><style>.d{fill:#212121;}.e{fill:#1e90ff;}.f{fill:#e9f4ff;}</style></defs><g id="a"/><g id="b"><g id="c"><g><polygon class="f" points="36.94 3 2.94 3 2.94 61 45.94 61 45.94 13 36.94 3"/><path class="e" d="M48.5,11.63L37.5,.45c-.28-.29-.67-.45-1.06-.45H1.5C.67,0,0,.68,0,1.51V62.49c0,.84,.67,1.51,1.5,1.51H47.44c.83,0,1.5-.68,1.5-1.51V12.69c0-.4-.16-.78-.44-1.06Zm-2.73,1.52c-.11-.02-.22-.04-.33-.04h-9.5V3.35c0-.08-.01-.15-.02-.22l9.85,10.01ZM3,60.98V3.02h29.97c-.02,.11-.04,.21-.04,.33V14.61c0,.84,.67,1.51,1.5,1.51h11c.18,0,.34-.04,.5-.09V60.98H3Z"/><g><path class="d" d="M12.37,34.85c0,.45-.07,.83-.2,1.14-.13,.31-.33,.54-.59,.7-.25,.16-.57,.24-.93,.24s-.65-.07-.91-.21c-.26-.14-.46-.34-.6-.61-.15-.27-.22-.59-.23-.96h-2.98c0,.94,.19,1.72,.6,2.34,.41,.62,.96,1.08,1.65,1.38,.69,.3,1.46,.45,2.32,.45,.96,0,1.8-.18,2.52-.54,.72-.36,1.29-.88,1.7-1.55,.41-.67,.61-1.46,.61-2.38v-9.86h-2.96v9.86Z"/><path class="d" d="M26.12,25.6c-.76-.41-1.67-.61-2.74-.61h-5.58v14.14h2.99v-4.58h2.51c1.09,0,2.01-.2,2.78-.6,.77-.4,1.35-.96,1.76-1.68s.61-1.55,.61-2.49-.2-1.77-.6-2.49c-.4-.72-.97-1.28-1.73-1.69Zm-1.03,5.41c-.19,.36-.47,.63-.84,.84-.37,.2-.85,.3-1.42,.3h-2.03v-4.72h2.02c.58,0,1.06,.1,1.44,.29,.38,.2,.66,.47,.85,.82s.28,.76,.28,1.23-.09,.88-.28,1.23Z"/><path class="d" d="M37.02,31.57v2.25h3.03c-.01,.56-.13,1.06-.37,1.48-.25,.44-.62,.78-1.1,1.03-.48,.24-1.06,.36-1.74,.36-.75,0-1.39-.18-1.94-.54-.55-.36-.97-.89-1.27-1.58-.3-.69-.45-1.53-.45-2.51s.15-1.82,.46-2.5,.73-1.21,1.27-1.57c.54-.36,1.18-.54,1.9-.54,.39,0,.74,.05,1.06,.14,.32,.1,.6,.24,.86,.42,.25,.18,.46,.4,.64,.66,.18,.26,.31,.56,.41,.89h3.04c-.1-.7-.32-1.34-.66-1.92-.34-.58-.78-1.08-1.32-1.51-.53-.42-1.15-.75-1.84-.98-.69-.23-1.44-.35-2.24-.35-.94,0-1.8,.16-2.6,.49-.8,.33-1.5,.8-2.1,1.43-.6,.63-1.07,1.39-1.41,2.29-.34,.9-.5,1.92-.5,3.07,0,1.49,.28,2.78,.84,3.86,.56,1.09,1.34,1.92,2.34,2.51,1,.59,2.17,.88,3.49,.88,1.19,0,2.24-.24,3.16-.72,.92-.48,1.64-1.17,2.17-2.06,.52-.89,.79-1.96,.79-3.2v-1.78h-5.92Z"/></g></g></g></g></svg>