<svg width="21" height="21" viewBox="0 0 21 21" fill="none" xmlns="http://www.w3.org/2000/svg">
<path fill-rule="evenodd" clip-rule="evenodd" d="M16.1787 19.9999C16.0188 20.0006 15.861 19.9629 15.7187 19.8899L10.6187 17.2199L5.51869 19.8899C5.02986 20.147 4.42522 19.9591 4.16818 19.4703C4.06486 19.2738 4.02986 19.0485 4.06869 18.8299L5.06869 13.1999L0.948685 9.19994H0.948685C0.686741 8.93854 0.590569 8.55386 0.698685 8.19994L0.698685 8.19994C0.816929 7.83737 1.13111 7.57361 1.50868 7.51994L7.20868 6.68994L9.71869 1.55994V1.55994C9.95942 1.06289 10.5575 0.855099 11.0546 1.09583C11.2571 1.19392 11.4206 1.35743 11.5187 1.55994L14.0587 6.67994L19.7587 7.50994C20.1363 7.56361 20.4504 7.82737 20.5687 8.18994C20.6768 8.54386 20.5806 8.92855 20.3187 9.18994L16.1987 13.1899L17.1987 18.8199C17.2716 19.2027 17.1155 19.593 16.7987 19.8199C16.6176 19.9468 16.3996 20.0101 16.1787 19.9999L16.1787 19.9999Z" fill="#1E90FF"/>
</svg>
