<?xml version="1.0" encoding="utf-8"?>
<svg width="21" height="17" viewBox="0 0 21 17" fill="none" xmlns="http://www.w3.org/2000/svg">
  <path fill-rule="evenodd" d="M 10.924900000000001 17 C 10.6597 17.0016 10.4049 16.8972 10.2166 16.71 L 2.46459 8.93002 C 0.44084 6.88037 0.44084 3.57967 2.46459 1.53002 C 4.50499 -0.509354 7.80704 -0.509354 9.84744 1.53002 L 10.924900000000001 2.61002 L 12.0024 1.53002 C 14.0428 -0.509354 17.3449 -0.509354 19.3853 1.53002 C 21.409 3.57967 21.409 6.88037 19.3853 8.93002 L 11.6333 16.71 C 11.445 16.8972 11.1901 17.0016 10.924900000000001 17" fill="#1E90FF" style="fill-rule: evenodd;"/>
  <path fill-rule="evenodd" d="M 6.15764 2.00003 C 5.30455 1.99616 4.48541 2.33466 3.88292 2.94003 C 2.62854 4.20394 2.6285499999999997 6.24612 3.88292 7.51003 L 10.9266 14.58 L 17.9702 7.51003 C 19.2246 6.24612 19.2246 4.20394 17.9702 2.94003 C 16.6935 1.73109 14.6974 1.73109 13.4208 2.94003 L 11.6349 4.74003 C 11.2469 5.13215 10.6152 5.13475 10.224 4.74583 C 10.2221 4.74391 10.2201 4.74197 10.2182 4.74003 L 8.43236 2.94003 C 7.82987 2.33466 7.01072 1.99616 6.15764 2.00003" fill="#1E90FF" style="fill-rule: evenodd;"/>
  <path d="M 10.925 17.5 C 10.564 17.482 10.132 17.304 9.862 17.063 L 2.109 9.281 C 1.041 8.169 0.447 6.656 0.447 5.23 C 0.447 3.804 1.043 2.288 2.111 1.176 C 3.219 0.1 4.731 -0.5 6.156 -0.5 C 7.581 -0.5 9.094 0.1 10.201 1.177 L 10.925 1.902 L 11.649 1.176 C 12.757 0.1 14.269 -0.5 15.694 -0.5 C 17.119 -0.5 18.633 0.102 19.741 1.179 C 20.809 2.291 21.403 3.804 21.403 5.23 C 21.403 6.656 20.807 8.171 19.739 9.283 L 11.986 17.065 C 11.716 17.306 11.286 17.482 10.925 17.5 Z M 11.281 16.355 L 19.031 8.577 C 19.987 7.639 20.403 6.479 20.403 5.23 C 20.403 3.981 19.987 2.82 19.031 1.882 C 18.098 0.92 16.94 0.5 15.694 0.5 C 14.447 0.5 13.288 0.921 12.356 1.884 L 11.279 2.963 L 10.925 3.318 L 9.493 1.883 C 8.561 0.92 7.402 0.5 6.156 0.5 C 4.91 0.5 3.752 0.92 2.819 1.882 C 1.864 2.82 1.447 3.981 1.447 5.23 C 1.447 6.479 1.864 7.641 2.82 8.579 L 10.571 16.357 C 10.678 16.49 10.753 16.52 10.922 16.5 C 11.091 16.52 11.174 16.489 11.281 16.355 Z M 8.787 2.588 L 10.575 4.39 C 10.576 4.39 10.576 4.391 10.577 4.391 C 10.684 4.529 10.763 4.537 10.929 4.536 C 11.095 4.535 11.173 4.527 11.28 4.388 L 13.077 2.577 C 13.801 1.92 14.791 1.533 15.695 1.533 C 16.6 1.533 17.601 1.93 18.325 2.588 C 19.009 3.307 19.411 4.31 19.411 5.225 C 19.411 6.14 19.008 7.144 18.324 7.863 L 10.927 15.288 L 10.572 14.933 L 3.528 7.862 C 2.845 7.143 2.442 6.14 2.442 5.225 C 2.442 4.31 2.845 3.307 3.529 2.587 C 4.213 1.927 5.209 1.516 6.158 1.5 C 7.107 1.516 8.103 1.928 8.787 2.588 Z M 6.16 2.5 C 5.403 2.477 4.758 2.742 4.238 3.292 C 3.667 3.837 3.442 4.487 3.442 5.225 C 3.442 5.963 3.667 6.613 4.238 7.158 L 10.927 13.872 L 17.616 7.157 C 18.187 6.613 18.411 5.963 18.411 5.225 C 18.411 4.487 18.191 3.842 17.62 3.297 C 17.069 2.75 16.427 2.533 15.695 2.533 C 14.964 2.533 14.318 2.752 13.765 3.303 L 11.99 5.092 C 11.708 5.346 11.277 5.534 10.933 5.536 C 10.588 5.537 10.155 5.352 9.872 5.101 C 9.871 5.1 9.866 5.095 9.861 5.09 L 8.077 3.292 C 7.557 2.742 6.916 2.477 6.16 2.5 Z" style=""/>
</svg>