<svg width="21" height="17" viewBox="0 0 21 17" fill="none" xmlns="http://www.w3.org/2000/svg">
<path fill-rule="evenodd" clip-rule="evenodd" d="M10.9249 17C10.6597 17.0016 10.4049 16.8972 10.2166 16.71L2.46459 8.93002C0.44084 6.88037 0.44084 3.57967 2.46459 1.53002C4.50499 -0.509354 7.80704 -0.509354 9.84744 1.53002L10.9249 2.61002L12.0024 1.53002C14.0428 -0.509354 17.3449 -0.509354 19.3853 1.53002V1.53002C21.409 3.57967 21.409 6.88037 19.3853 8.93002L11.6333 16.71C11.445 16.8972 11.1901 17.0016 10.9249 17ZM6.15764 2.00003C5.30455 1.99616 4.48541 2.33466 3.88292 2.94003L3.88292 2.94003C2.62854 4.20394 2.62855 6.24612 3.88292 7.51003L10.9266 14.58L17.9702 7.51003C19.2246 6.24612 19.2246 4.20394 17.9702 2.94003C16.6935 1.73109 14.6974 1.73109 13.4208 2.94003L11.6349 4.74003V4.74003C11.2469 5.13215 10.6152 5.13475 10.224 4.74583C10.2221 4.74391 10.2201 4.74197 10.2182 4.74003L8.43236 2.94003C7.82987 2.33466 7.01072 1.99616 6.15764 2.00003L6.15764 2.00003Z" fill="#1E90FF"/>
</svg>
