<svg width="20" height="20" viewBox="0 0 20 20" fill="none" xmlns="http://www.w3.org/2000/svg">
<path fill-rule="evenodd" clip-rule="evenodd" d="M10.0002 5.00008C8.38933 5.00008 7.0835 6.30591 7.0835 7.91675C7.0835 9.52758 8.38933 10.8334 10.0002 10.8334C11.611 10.8334 12.9168 9.52758 12.9168 7.91675C12.9168 6.30592 11.611 5.00008 10.0002 5.00008ZM10.0002 9.16675C9.30981 9.16675 8.75016 8.6071 8.75016 7.91675C8.75016 7.22639 9.30981 6.66675 10.0002 6.66675C10.6905 6.66675 11.2502 7.22639 11.2502 7.91675C11.2502 8.6071 10.6905 9.16675 10.0002 9.16675Z" fill="#8FC8FF"/>
<path fill-rule="evenodd" clip-rule="evenodd" d="M10.0002 1.66675C6.34415 1.66657 3.37005 4.61091 3.3335 8.26675C3.3335 12.8254 9.18795 17.899 9.45713 18.1322L9.4585 18.1334C9.77035 18.4002 10.23 18.4002 10.5418 18.1334C10.8335 17.9167 16.6668 12.8334 16.6668 8.26674C16.6303 4.61091 13.6562 1.66656 10.0002 1.66675ZM10.0002 16.3751C8.6085 15.0501 5.00016 11.3751 5.00016 8.26675C5.00016 5.50532 7.23874 3.26675 10.0002 3.26675C12.7616 3.26675 15.0002 5.50532 15.0002 8.26675C15.0002 11.3501 11.3918 15.0501 10.0002 16.3751Z" fill="#8FC8FF"/>
</svg>
