<svg width="15" height="18" viewBox="0 0 15 18" fill="none" xmlns="http://www.w3.org/2000/svg">
<path fill-rule="evenodd" clip-rule="evenodd" d="M7.60588 4.00008C5.99504 4.00008 4.68921 5.30591 4.68921 6.91675C4.68921 8.52758 5.99504 9.83342 7.60587 9.83342C9.21671 9.83342 10.5225 8.52758 10.5225 6.91675C10.5225 5.30592 9.21671 4.00008 7.60588 4.00008ZM7.60587 8.16675C6.91552 8.16675 6.35587 7.6071 6.35587 6.91675C6.35587 6.22639 6.91552 5.66675 7.60587 5.66675C8.29623 5.66675 8.85588 6.22639 8.85588 6.91675C8.85588 7.6071 8.29623 8.16675 7.60587 8.16675Z" fill="#1E90FF"/>
<path fill-rule="evenodd" clip-rule="evenodd" d="M7.60588 0.666748C3.94986 0.666565 0.975767 3.61091 0.939209 7.26675C0.939209 11.8254 6.79367 16.899 7.06284 17.1322L7.06421 17.1334C7.37606 17.4002 7.83569 17.4002 8.14754 17.1334C8.43921 16.9167 14.2725 11.8334 14.2725 7.26674C14.236 3.61091 11.2619 0.666556 7.60588 0.666748ZM7.60588 15.3751C6.21421 14.0501 2.60588 10.3751 2.60588 7.26675C2.60587 4.50532 4.84445 2.26675 7.60588 2.26675C10.3673 2.26675 12.6059 4.50532 12.6059 7.26675C12.6059 10.3501 8.99754 14.0501 7.60588 15.3751Z" fill="#1E90FF"/>
</svg>
