<svg width="189" height="50" viewBox="0 0 189 50" fill="none" xmlns="http://www.w3.org/2000/svg">
<mask id="path-1-outside-1" maskUnits="userSpaceOnUse" x="6.02839" y="3.04485" width="48.0284" height="45.0294" fill="black">
<path d="M52.9677 21.1638C52.6317 18.8602 52.0914 16.5788 51.3364 14.3739C50.9693 13.3017 50.6064 12.2039 50.1238 11.1758C49.7551 10.3906 49.1897 9.39398 48.3505 9.01491C47.3759 8.57478 46.2068 8.67315 45.1797 8.43346C44.8511 8.35639 44.3833 8.88996 44.1791 9.09134C44.1179 9.15167 43.3364 10.0022 43.5123 10.0776C44.4317 10.4736 45.4647 10.4858 46.3754 10.8784C47.2008 11.2337 47.7567 12.1861 48.1219 12.9518C48.5648 13.8806 48.8828 14.8782 49.2153 15.8494C49.5825 16.9209 49.9039 18.0051 50.1745 19.1037C51.1833 23.2012 51.8337 27.738 50.7827 31.8903C50.3156 33.735 49.5149 35.4907 48.432 37.0641C47.9229 37.804 47.4017 38.437 46.864 39.0215C46.8054 39.0853 46.7459 39.149 46.6865 39.2119C46.6546 39.245 46.5805 39.3223 46.5547 39.3478C46.3909 39.5126 46.2229 39.6732 46.0574 39.8355C46.048 39.8449 46.0402 39.8525 46.0342 39.8593C46.0195 39.8721 46.0032 39.8865 45.9842 39.9044C45.898 39.9817 45.8119 40.0599 45.7248 40.1372C45.6378 40.2145 45.5499 40.2902 45.462 40.3658C45.4232 40.3998 45.3956 40.4236 45.3767 40.4397C45.3586 40.4542 45.3344 40.4737 45.3034 40.4992C42.2527 42.9832 38.3477 44.4929 34.3688 45.0252C32.1952 45.3161 30.0206 45.2699 27.8408 45.0666C25.5747 44.8548 23.3197 44.4792 21.1877 43.6721C19.3041 42.959 17.4377 42.0329 15.8573 40.7864C14.427 39.6579 13.2103 38.2796 12.2333 36.7542C11.1691 35.0921 10.348 33.216 9.80183 31.3286C9.19867 29.2451 8.99632 26.9439 9.0191 24.7827C9.04191 22.6819 9.33373 20.5536 9.95155 18.5407C10.2579 17.5427 10.6823 16.5523 11.2353 15.6612C11.7444 14.8423 12.4665 14.1379 13.1153 13.4284C14.4647 11.9517 15.7417 10.7494 17.4509 9.62824C19.1246 8.53008 20.9563 7.59061 22.8468 6.90927C23.9062 6.52734 25.0089 6.29229 26.1176 6.0963C27.2194 5.90201 28.3255 5.71876 29.4429 5.6408C31.7761 5.47888 34.1956 5.57591 36.5195 5.82499C37.618 5.94235 38.6693 6.2627 39.7421 6.50491C39.9956 6.5625 40.3523 6.15552 40.51 6.00003C40.5522 5.95839 41.1329 5.26681 41.0217 5.2431C39.9274 5.00769 38.8623 4.6381 37.7559 4.463C36.5685 4.27521 35.3621 4.17914 34.1619 4.12043C32.9538 4.06088 31.7329 4.02342 30.5249 4.10653C29.3273 4.18793 28.1324 4.37378 26.9513 4.5817C22.6474 5.33756 18.5697 7.67275 15.3363 10.5152C14.3832 11.3531 13.5026 12.2682 12.6401 13.196C11.8112 14.0882 10.9754 14.9803 10.2336 15.9454C8.84049 17.7576 8.03998 19.9303 7.57059 22.1384C6.62064 26.6057 6.93929 31.4806 8.65438 35.7289C10.1251 39.3726 12.5612 42.5547 16.0933 44.4683C18.1211 45.5676 20.2712 46.3815 22.5477 46.8064C24.8493 47.2355 27.2439 47.4625 29.5874 47.4109C34.0779 47.3122 38.5745 45.9788 42.3341 43.5504C44.2638 42.3043 46.0037 40.79 47.5728 39.1281C49.0876 37.5231 50.4462 35.7339 51.4461 33.7708C52.3847 31.9284 52.9914 29.9171 53.2134 27.8671C53.4543 25.6463 53.289 23.3681 52.9677 21.1638Z"/>
</mask>
<path d="M52.9677 21.1638C52.6317 18.8602 52.0914 16.5788 51.3364 14.3739C50.9693 13.3017 50.6064 12.2039 50.1238 11.1758C49.7551 10.3906 49.1897 9.39398 48.3505 9.01491C47.3759 8.57478 46.2068 8.67315 45.1797 8.43346C44.8511 8.35639 44.3833 8.88996 44.1791 9.09134C44.1179 9.15167 43.3364 10.0022 43.5123 10.0776C44.4317 10.4736 45.4647 10.4858 46.3754 10.8784C47.2008 11.2337 47.7567 12.1861 48.1219 12.9518C48.5648 13.8806 48.8828 14.8782 49.2153 15.8494C49.5825 16.9209 49.9039 18.0051 50.1745 19.1037C51.1833 23.2012 51.8337 27.738 50.7827 31.8903C50.3156 33.735 49.5149 35.4907 48.432 37.0641C47.9229 37.804 47.4017 38.437 46.864 39.0215C46.8054 39.0853 46.7459 39.149 46.6865 39.2119C46.6546 39.245 46.5805 39.3223 46.5547 39.3478C46.3909 39.5126 46.2229 39.6732 46.0574 39.8355C46.048 39.8449 46.0402 39.8525 46.0342 39.8593C46.0195 39.8721 46.0032 39.8865 45.9842 39.9044C45.898 39.9817 45.8119 40.0599 45.7248 40.1372C45.6378 40.2145 45.5499 40.2902 45.462 40.3658C45.4232 40.3998 45.3956 40.4236 45.3767 40.4397C45.3586 40.4542 45.3344 40.4737 45.3034 40.4992C42.2527 42.9832 38.3477 44.4929 34.3688 45.0252C32.1952 45.3161 30.0206 45.2699 27.8408 45.0666C25.5747 44.8548 23.3197 44.4792 21.1877 43.6721C19.3041 42.959 17.4377 42.0329 15.8573 40.7864C14.427 39.6579 13.2103 38.2796 12.2333 36.7542C11.1691 35.0921 10.348 33.216 9.80183 31.3286C9.19867 29.2451 8.99632 26.9439 9.0191 24.7827C9.04191 22.6819 9.33373 20.5536 9.95155 18.5407C10.2579 17.5427 10.6823 16.5523 11.2353 15.6612C11.7444 14.8423 12.4665 14.1379 13.1153 13.4284C14.4647 11.9517 15.7417 10.7494 17.4509 9.62824C19.1246 8.53008 20.9563 7.59061 22.8468 6.90927C23.9062 6.52734 25.0089 6.29229 26.1176 6.0963C27.2194 5.90201 28.3255 5.71876 29.4429 5.6408C31.7761 5.47888 34.1956 5.57591 36.5195 5.82499C37.618 5.94235 38.6693 6.2627 39.7421 6.50491C39.9956 6.5625 40.3523 6.15552 40.51 6.00003C40.5522 5.95839 41.1329 5.26681 41.0217 5.2431C39.9274 5.00769 38.8623 4.6381 37.7559 4.463C36.5685 4.27521 35.3621 4.17914 34.1619 4.12043C32.9538 4.06088 31.7329 4.02342 30.5249 4.10653C29.3273 4.18793 28.1324 4.37378 26.9513 4.5817C22.6474 5.33756 18.5697 7.67275 15.3363 10.5152C14.3832 11.3531 13.5026 12.2682 12.6401 13.196C11.8112 14.0882 10.9754 14.9803 10.2336 15.9454C8.84049 17.7576 8.03998 19.9303 7.57059 22.1384C6.62064 26.6057 6.93929 31.4806 8.65438 35.7289C10.1251 39.3726 12.5612 42.5547 16.0933 44.4683C18.1211 45.5676 20.2712 46.3815 22.5477 46.8064C24.8493 47.2355 27.2439 47.4625 29.5874 47.4109C34.0779 47.3122 38.5745 45.9788 42.3341 43.5504C44.2638 42.3043 46.0037 40.79 47.5728 39.1281C49.0876 37.5231 50.4462 35.7339 51.4461 33.7708C52.3847 31.9284 52.9914 29.9171 53.2134 27.8671C53.4543 25.6463 53.289 23.3681 52.9677 21.1638Z" fill="#212121"/>
<path d="M52.9677 21.1638C52.6317 18.8602 52.0914 16.5788 51.3364 14.3739C50.9693 13.3017 50.6064 12.2039 50.1238 11.1758C49.7551 10.3906 49.1897 9.39398 48.3505 9.01491C47.3759 8.57478 46.2068 8.67315 45.1797 8.43346C44.8511 8.35639 44.3833 8.88996 44.1791 9.09134C44.1179 9.15167 43.3364 10.0022 43.5123 10.0776C44.4317 10.4736 45.4647 10.4858 46.3754 10.8784C47.2008 11.2337 47.7567 12.1861 48.1219 12.9518C48.5648 13.8806 48.8828 14.8782 49.2153 15.8494C49.5825 16.9209 49.9039 18.0051 50.1745 19.1037C51.1833 23.2012 51.8337 27.738 50.7827 31.8903C50.3156 33.735 49.5149 35.4907 48.432 37.0641C47.9229 37.804 47.4017 38.437 46.864 39.0215C46.8054 39.0853 46.7459 39.149 46.6865 39.2119C46.6546 39.245 46.5805 39.3223 46.5547 39.3478C46.3909 39.5126 46.2229 39.6732 46.0574 39.8355C46.048 39.8449 46.0402 39.8525 46.0342 39.8593C46.0195 39.8721 46.0032 39.8865 45.9842 39.9044C45.898 39.9817 45.8119 40.0599 45.7248 40.1372C45.6378 40.2145 45.5499 40.2902 45.462 40.3658C45.4232 40.3998 45.3956 40.4236 45.3767 40.4397C45.3586 40.4542 45.3344 40.4737 45.3034 40.4992C42.2527 42.9832 38.3477 44.4929 34.3688 45.0252C32.1952 45.3161 30.0206 45.2699 27.8408 45.0666C25.5747 44.8548 23.3197 44.4792 21.1877 43.6721C19.3041 42.959 17.4377 42.0329 15.8573 40.7864C14.427 39.6579 13.2103 38.2796 12.2333 36.7542C11.1691 35.0921 10.348 33.216 9.80183 31.3286C9.19867 29.2451 8.99632 26.9439 9.0191 24.7827C9.04191 22.6819 9.33373 20.5536 9.95155 18.5407C10.2579 17.5427 10.6823 16.5523 11.2353 15.6612C11.7444 14.8423 12.4665 14.1379 13.1153 13.4284C14.4647 11.9517 15.7417 10.7494 17.4509 9.62824C19.1246 8.53008 20.9563 7.59061 22.8468 6.90927C23.9062 6.52734 25.0089 6.29229 26.1176 6.0963C27.2194 5.90201 28.3255 5.71876 29.4429 5.6408C31.7761 5.47888 34.1956 5.57591 36.5195 5.82499C37.618 5.94235 38.6693 6.2627 39.7421 6.50491C39.9956 6.5625 40.3523 6.15552 40.51 6.00003C40.5522 5.95839 41.1329 5.26681 41.0217 5.2431C39.9274 5.00769 38.8623 4.6381 37.7559 4.463C36.5685 4.27521 35.3621 4.17914 34.1619 4.12043C32.9538 4.06088 31.7329 4.02342 30.5249 4.10653C29.3273 4.18793 28.1324 4.37378 26.9513 4.5817C22.6474 5.33756 18.5697 7.67275 15.3363 10.5152C14.3832 11.3531 13.5026 12.2682 12.6401 13.196C11.8112 14.0882 10.9754 14.9803 10.2336 15.9454C8.84049 17.7576 8.03998 19.9303 7.57059 22.1384C6.62064 26.6057 6.93929 31.4806 8.65438 35.7289C10.1251 39.3726 12.5612 42.5547 16.0933 44.4683C18.1211 45.5676 20.2712 46.3815 22.5477 46.8064C24.8493 47.2355 27.2439 47.4625 29.5874 47.4109C34.0779 47.3122 38.5745 45.9788 42.3341 43.5504C44.2638 42.3043 46.0037 40.79 47.5728 39.1281C49.0876 37.5231 50.4462 35.7339 51.4461 33.7708C52.3847 31.9284 52.9914 29.9171 53.2134 27.8671C53.4543 25.6463 53.289 23.3681 52.9677 21.1638Z" stroke="black" stroke-width="0.5" mask="url(#path-1-outside-1)"/>
<path d="M38.0616 29.6719C39.3702 30.9361 40.6887 32.1286 42.0024 33.3672C44.6086 35.8244 47.1719 38.4452 49.72 41.0563C50.988 42.3557 52.5074 43.7932 53.7452 45.1584" stroke="#FF90A0" stroke-width="3" stroke-linecap="round" stroke-linejoin="round"/>
<text fill="#FF90A0" xml:space="preserve" style="white-space: pre" font-family="Cormorant Garamond" font-size="18" font-weight="bold" letter-spacing="1px"><tspan x="57.0879" y="23.733">UALIFIED</tspan></text>
<text fill="#323232" xml:space="preserve" style="white-space: pre" font-family="Cormorant Garamond" font-size="24" font-weight="bold" letter-spacing="1px"><tspan x="56.1172" y="44.144">TUTORS</tspan></text>
</svg>
