<?xml version="1.0" encoding="UTF-8"?>
<!-- Generator: Adobe Illustrator 24.0.3, SVG Export Plug-In . SVG Version: 6.00 Build 0)  -->
<svg version="1.1" id="Layer_1" xmlns="http://www.w3.org/2000/svg" xmlns:xlink="http://www.w3.org/1999/xlink" x="0px" y="0px" viewBox="0 0 189 50" style="enable-background:new 0 0 189 50;" xml:space="preserve">
<style type="text/css">
	.st0{fill:none;}
	.st1{fill:#212121;}
	.st2{fill:none;stroke:#000000;stroke-width:0.5;}
	.st3{fill:none;stroke:#FF90A0;stroke-width:3;stroke-linecap:round;stroke-linejoin:round;}
	.st4{enable-background:new    ;}
	.st5{fill:#FF90A0;}
	.st6{fill:#323232;}
</style>
<rect class="st0" width="189" height="50"/>
<rect x="-272" y="-77" class="st0" width="499" height="318"/>
<path class="st1" d="M53,21.2c-0.3-2.3-0.9-4.6-1.6-6.8c-0.4-1.1-0.7-2.2-1.2-3.2c-0.4-0.8-0.9-1.8-1.8-2.2c-1-0.4-2.1-0.3-3.2-0.6  c-0.3-0.1-0.8,0.5-1,0.7c-0.1,0.1-0.8,0.9-0.7,1c0.9,0.4,2,0.4,2.9,0.8c0.8,0.4,1.4,1.3,1.7,2.1c0.4,0.9,0.8,1.9,1.1,2.9  c0.4,1.1,0.7,2.2,1,3.3c1,4.1,1.7,8.6,0.6,12.8c-0.5,1.8-1.3,3.6-2.4,5.2c-0.5,0.7-1,1.4-1.6,2c-0.1,0.1-0.1,0.1-0.2,0.2l-0.1,0.1  c-0.2,0.2-0.3,0.3-0.5,0.5l0,0l0,0c-0.1,0.1-0.2,0.2-0.3,0.2c-0.1,0.1-0.2,0.2-0.3,0.2l-0.1,0.1c0,0,0,0-0.1,0.1  c-3.1,2.5-7,4-10.9,4.5c-2.2,0.3-4.3,0.2-6.5,0c-2.3-0.2-4.5-0.6-6.7-1.4c-1.9-0.7-3.8-1.6-5.3-2.9c-1.4-1.1-2.6-2.5-3.6-4  c-1.1-1.7-1.9-3.5-2.4-5.4C9.2,29.2,9,26.9,9,24.8s0.3-4.2,0.9-6.2c0.3-1,0.7-2,1.3-2.9c0.5-0.8,1.2-1.5,1.9-2.2  c1.3-1.5,2.6-2.7,4.3-3.8s3.5-2,5.4-2.7c1.1-0.4,2.2-0.6,3.3-0.8c1.1-0.2,2.2-0.4,3.3-0.5c2.3-0.2,4.8-0.1,7.1,0.2  c1.1,0.1,2.1,0.4,3.2,0.7c0.3,0,0.7-0.4,0.8-0.6c0,0,0.6-0.7,0.5-0.8c-1.1-0.2-2.2-0.6-3.3-0.8c-1.2-0.2-2.4-0.3-3.6-0.3  c-1.2-0.1-2.4-0.1-3.6,0s-2.4,0.3-3.6,0.5c-4.3,0.8-8.4,3.1-11.6,5.9c-1,0.8-1.8,1.8-2.7,2.7c-0.8,0.9-1.7,1.8-2.4,2.7  c-1.4,1.8-2.2,4-2.7,6.2c-0.9,4.5-0.6,9.3,1.1,13.6c1.5,3.6,3.9,6.8,7.4,8.7c2,1.1,4.2,1.9,6.5,2.3c2.3,0.4,4.7,0.7,7,0.6  c4.5-0.1,9-1.4,12.7-3.9c1.9-1.2,3.7-2.8,5.2-4.4c1.5-1.6,2.9-3.4,3.9-5.4c0.9-1.8,1.5-3.9,1.8-5.9C53.5,25.6,53.3,23.4,53,21.2z"/>
<path class="st3" d="M53,21.2c-0.3-2.3-0.9-4.6-1.6-6.8c-0.4-1.1-0.7-2.2-1.2-3.2c-0.4-0.8-0.9-1.8-1.8-2.2c-1-0.4-2.1-0.3-3.2-0.6  c-0.3-0.1-0.8,0.5-1,0.7c-0.1,0.1-0.8,0.9-0.7,1c0.9,0.4,2,0.4,2.9,0.8c0.8,0.4,1.4,1.3,1.7,2.1c0.4,0.9,0.8,1.9,1.1,2.9  c0.4,1.1,0.7,2.2,1,3.3c1,4.1,1.7,8.6,0.6,12.8c-0.5,1.8-1.3,3.6-2.4,5.2c-0.5,0.7-1,1.4-1.6,2c-0.1,0.1-0.1,0.1-0.2,0.2l-0.1,0.1  c-0.2,0.2-0.3,0.3-0.5,0.5l0,0l0,0c-0.1,0.1-0.2,0.2-0.3,0.2c-0.1,0.1-0.2,0.2-0.3,0.2l-0.1,0.1c0,0,0,0-0.1,0.1  c-3.1,2.5-7,4-10.9,4.5c-2.2,0.3-4.3,0.2-6.5,0c-2.3-0.2-4.5-0.6-6.7-1.4c-1.9-0.7-3.8-1.6-5.3-2.9c-1.4-1.1-2.6-2.5-3.6-4  c-1.1-1.7-1.9-3.5-2.4-5.4C9.2,29.2,9,26.9,9,24.8s0.3-4.2,0.9-6.2c0.3-1,0.7-2,1.3-2.9c0.5-0.8,1.2-1.5,1.9-2.2  c1.3-1.5,2.6-2.7,4.3-3.8s3.5-2,5.4-2.7c1.1-0.4,2.2-0.6,3.3-0.8c1.1-0.2,2.2-0.4,3.3-0.5c2.3-0.2,4.8-0.1,7.1,0.2  c1.1,0.1,2.1,0.4,3.2,0.7c0.3,0,0.7-0.4,0.8-0.6c0,0,0.6-0.7,0.5-0.8c-1.1-0.2-2.2-0.6-3.3-0.8c-1.2-0.2-2.4-0.3-3.6-0.3  c-1.2-0.1-2.4-0.1-3.6,0s-2.4,0.3-3.6,0.5c-4.3,0.8-8.4,3.1-11.6,5.9c-1,0.8-1.8,1.8-2.7,2.7c-0.8,0.9-1.7,1.8-2.4,2.7  c-1.4,1.8-2.2,4-2.7,6.2c-0.9,4.5-0.6,9.3,1.1,13.6c1.5,3.6,3.9,6.8,7.4,8.7c2,1.1,4.2,1.9,6.5,2.3c2.3,0.4,4.7,0.7,7,0.6  c4.5-0.1,9-1.4,12.7-3.9c1.9-1.2,3.7-2.8,5.2-4.4c1.5-1.6,2.9-3.4,3.9-5.4c0.9-1.8,1.5-3.9,1.8-5.9C53.5,25.6,53.3,23.4,53,21.2z"/>
<path class="st3" d="M38.1,29.7c1.3,1.3,2.6,2.5,3.9,3.7c2.6,2.5,5.2,5.1,7.7,7.7c1.3,1.3,2.8,2.7,4,4.1"/>
<g class="st4">
	<path class="st6" d="M66.9,13.3c-0.3-0.4-0.7-0.6-1.2-0.6c0,0,0,0,0-0.1c0-0.1,0-0.1,0-0.1l0.9,0c0.5,0,0.8,0,1.1,0   c0.2,0,0.6,0,1,0l0.8,0c0,0,0,0,0,0.1c0,0.1,0,0.1,0,0.1c-0.5,0-0.8,0.2-1.1,0.6c-0.3,0.4-0.4,0.9-0.4,1.5v5c0,0.8-0.2,1.6-0.6,2.2   c-0.4,0.6-0.9,1.1-1.6,1.5S64.4,24,63.5,24c-0.9,0-1.7-0.2-2.4-0.5c-0.7-0.3-1.2-0.8-1.6-1.5c-0.4-0.6-0.6-1.4-0.6-2.3v-5.8   c0-0.4,0-0.6-0.1-0.8s-0.2-0.3-0.4-0.4c-0.2-0.1-0.4-0.1-0.8-0.1c0,0-0.1,0-0.1-0.1c0-0.1,0-0.1,0.1-0.1l1,0c0.6,0,1,0,1.3,0   c0.4,0,0.8,0,1.4,0l0.9,0c0,0,0.1,0,0.1,0.1c0,0.1,0,0.1-0.1,0.1c-0.4,0-0.6,0-0.8,0.1c-0.2,0.1-0.3,0.2-0.4,0.4   c-0.1,0.2-0.1,0.4-0.1,0.8v5.1c0,1.4,0.3,2.5,0.8,3.2c0.6,0.7,1.4,1,2.4,1c1,0,1.8-0.3,2.3-0.9c0.6-0.6,0.8-1.5,0.8-2.6v-5   C67.4,14.1,67.2,13.6,66.9,13.3z"/>
	<path class="st6" d="M81.9,23.6c0,0.1,0,0.1-0.1,0.1c-0.2,0-0.6,0-1.1,0c-0.5,0-0.9,0-1.1,0c-0.3,0-0.7,0-1.1,0c-0.4,0-0.7,0-1,0   c0,0-0.1,0-0.1-0.1c0-0.1,0-0.1,0.1-0.1c0.3,0,0.5,0,0.7-0.1c0.1-0.1,0.2-0.2,0.2-0.4c0-0.2-0.1-0.5-0.4-1l-1.2-2.4h-4.4l-0.7,1.6   c-0.2,0.3-0.2,0.7-0.2,1c0,0.4,0.2,0.8,0.5,1c0.3,0.2,0.7,0.4,1.2,0.4c0.1,0,0.1,0,0.1,0.1c0,0.1,0,0.1-0.1,0.1c-0.2,0-0.5,0-0.9,0   c-0.5,0-0.9,0-1.2,0c-0.3,0-0.7,0-1.2,0c-0.4,0-0.7,0-1,0c0,0-0.1,0-0.1-0.1c0-0.1,0-0.1,0.1-0.1c0.3,0,0.6-0.1,0.8-0.2   s0.5-0.4,0.7-0.7c0.2-0.4,0.5-0.9,0.8-1.6l3.9-8.6c0,0,0.1-0.1,0.2-0.1c0.1,0,0.1,0,0.2,0.1l4.5,8.9c0.4,0.9,0.8,1.4,1,1.8   c0.3,0.3,0.6,0.5,0.9,0.5C81.9,23.5,81.9,23.6,81.9,23.6z M72.6,19.1h3.9L74.4,15L72.6,19.1z"/>
	<path class="st6" d="M85.6,22.2c0,0.3,0,0.5,0.1,0.7c0,0.1,0.1,0.2,0.3,0.3c0.1,0,0.4,0.1,0.7,0.1h0.6c0.9,0,1.7-0.2,2.4-0.7   s1.1-1.2,1.4-2c0,0,0,0,0.1,0c0,0,0.1,0,0.1,0c0,0,0,0,0,0c-0.1,1.2-0.2,2.2-0.2,3c0,0.1,0,0.2-0.1,0.2c0,0-0.1,0.1-0.2,0.1h-8.5   c0,0,0,0,0-0.1c0-0.1,0-0.1,0-0.1c0.4,0,0.7,0,0.8-0.1c0.2-0.1,0.3-0.2,0.4-0.4c0.1-0.2,0.1-0.4,0.1-0.8v-8.3c0-0.4,0-0.6-0.1-0.8   s-0.2-0.3-0.4-0.4c-0.2-0.1-0.5-0.1-0.8-0.1c0,0,0,0,0-0.1c0-0.1,0-0.1,0-0.1l0.9,0c0.6,0,1,0,1.4,0c0.4,0,0.8,0,1.4,0l0.9,0   c0,0,0.1,0,0.1,0.1c0,0.1,0,0.1-0.1,0.1c-0.4,0-0.6,0-0.8,0.1c-0.2,0.1-0.3,0.2-0.4,0.4s-0.1,0.4-0.1,0.8V22.2z"/>
	<path class="st6" d="M95.8,23.1c0.1,0.2,0.2,0.3,0.4,0.3c0.2,0.1,0.5,0.1,0.8,0.1c0,0,0.1,0,0.1,0.1c0,0.1,0,0.1-0.1,0.1   c-0.4,0-0.7,0-0.9,0l-1.4,0l-1.3,0c-0.2,0-0.6,0-1,0c0,0,0,0,0-0.1c0-0.1,0-0.1,0-0.1c0.4,0,0.7,0,0.8-0.1c0.2-0.1,0.3-0.2,0.4-0.4   c0.1-0.2,0.1-0.4,0.1-0.8v-8.3c0-0.4,0-0.6-0.1-0.8c-0.1-0.2-0.2-0.3-0.4-0.4c-0.2-0.1-0.5-0.1-0.8-0.1c0,0,0,0,0-0.1   c0-0.1,0-0.1,0-0.1l1,0c0.6,0,1,0,1.3,0c0.4,0,0.8,0,1.4,0l0.9,0c0,0,0.1,0,0.1,0.1c0,0.1,0,0.1-0.1,0.1c-0.4,0-0.6,0-0.8,0.1   s-0.3,0.2-0.4,0.4c-0.1,0.2-0.1,0.4-0.1,0.8v8.3C95.7,22.6,95.7,22.9,95.8,23.1z"/>
	<path class="st6" d="M106.3,15C106.3,15.1,106.3,15.1,106.3,15c-0.2,0.1-0.2,0.1-0.2,0c-0.2-0.7-0.5-1.2-1-1.5s-1.1-0.5-1.8-0.5   h-0.5c-0.4,0-0.6,0.1-0.8,0.2c-0.2,0.2-0.3,0.4-0.3,0.7v3.9h1.3c0.7,0,1.2-0.1,1.6-0.4s0.5-0.6,0.5-1c0,0,0,0,0.1,0   c0.1,0,0.1,0,0.1,0l0,1.6c0,0.4,0,0.7,0,0.9l0,1c0,0,0,0.1-0.1,0.1c-0.1,0-0.1,0-0.1-0.1c0-0.5-0.2-0.9-0.6-1.1s-0.9-0.4-1.6-0.4   h-1.3v3.9c0,0.4,0,0.6,0.1,0.8c0.1,0.2,0.3,0.3,0.5,0.4s0.7,0.1,1.2,0.1c0,0,0,0,0,0.1c0,0.1,0,0.1,0,0.1c-0.5,0-0.9,0-1.2,0   l-1.8,0l-1.3,0c-0.2,0-0.6,0-1,0c0,0-0.1,0-0.1-0.1c0-0.1,0-0.1,0.1-0.1c0.4,0,0.7,0,0.9-0.1c0.2-0.1,0.3-0.2,0.4-0.4   c0.1-0.2,0.1-0.4,0.1-0.8v-8.3c0-0.4,0-0.6-0.1-0.8c-0.1-0.2-0.2-0.3-0.4-0.4c-0.2-0.1-0.5-0.1-0.8-0.1c0,0-0.1,0-0.1-0.1   c0-0.1,0-0.1,0.1-0.1h7.6c0.1,0,0.2,0.1,0.2,0.2L106.3,15z"/>
	<path class="st6" d="M111.3,23.1c0.1,0.2,0.2,0.3,0.4,0.3c0.2,0.1,0.5,0.1,0.8,0.1c0,0,0.1,0,0.1,0.1c0,0.1,0,0.1-0.1,0.1   c-0.4,0-0.7,0-0.9,0l-1.4,0l-1.3,0c-0.2,0-0.6,0-1,0c0,0,0,0,0-0.1c0-0.1,0-0.1,0-0.1c0.4,0,0.7,0,0.8-0.1c0.2-0.1,0.3-0.2,0.4-0.4   c0.1-0.2,0.1-0.4,0.1-0.8v-8.3c0-0.4,0-0.6-0.1-0.8c-0.1-0.2-0.2-0.3-0.4-0.4c-0.2-0.1-0.5-0.1-0.8-0.1c0,0,0,0,0-0.1   c0-0.1,0-0.1,0-0.1l1,0c0.6,0,1,0,1.3,0c0.4,0,0.8,0,1.4,0l0.9,0c0,0,0.1,0,0.1,0.1c0,0.1,0,0.1-0.1,0.1c-0.4,0-0.6,0-0.8,0.1   c-0.2,0.1-0.3,0.2-0.4,0.4c-0.1,0.2-0.1,0.4-0.1,0.8v8.3C111.2,22.6,111.3,22.9,111.3,23.1z"/>
	<path class="st6" d="M122.3,20.8C122.3,20.8,122.4,20.8,122.3,20.8c0.1,0,0.1,0.1,0.1,0.1c-0.1,0.9-0.2,1.8-0.2,2.6   c0,0.1,0,0.2-0.1,0.2c0,0-0.1,0.1-0.2,0.1h-8c0,0-0.1,0-0.1-0.1c0-0.1,0-0.1,0.1-0.1c0.4,0,0.7,0,0.8-0.1c0.2-0.1,0.3-0.2,0.3-0.4   c0.1-0.2,0.1-0.4,0.1-0.8v-8.3c0-0.4,0-0.6-0.1-0.8c-0.1-0.2-0.2-0.3-0.4-0.4c-0.2-0.1-0.5-0.1-0.8-0.1c0,0-0.1,0-0.1-0.1   c0-0.1,0-0.1,0.1-0.1h7.6c0.1,0,0.2,0.1,0.2,0.2l0,2.4c0,0,0,0-0.1,0.1s-0.1,0-0.1,0c-0.2-0.7-0.5-1.2-1-1.5s-1.1-0.5-1.8-0.5h-0.5   c-0.4,0-0.6,0.1-0.8,0.2c-0.2,0.2-0.3,0.4-0.3,0.7v3.7h1.5c0.7,0,1.2-0.1,1.6-0.4s0.6-0.6,0.6-1c0,0,0-0.1,0.1-0.1s0.1,0,0.1,0.1   l0,1.6l0,0.9c0,0.4,0,0.7,0,1c0,0,0,0-0.1,0s-0.1,0-0.1,0c0-0.5-0.2-0.9-0.6-1.2c-0.4-0.3-0.9-0.4-1.6-0.4h-1.5v4.1   c0,0.3,0.1,0.6,0.2,0.8c0.1,0.2,0.3,0.3,0.6,0.3h0.6c0.9,0,1.7-0.2,2.2-0.6C121.6,22.3,122,21.7,122.3,20.8   C122.2,20.8,122.3,20.8,122.3,20.8z"/>
	<path class="st6" d="M127.7,23.8c-0.2,0-0.4,0-0.7,0c-0.3,0-0.6,0-0.9,0l-1.3,0c-0.2,0-0.6,0-1,0c0,0,0,0,0-0.1c0-0.1,0-0.1,0-0.1   c0.4,0,0.7,0,0.8-0.1c0.2-0.1,0.3-0.2,0.4-0.4c0.1-0.2,0.1-0.4,0.1-0.8v-8.3c0-0.4,0-0.6-0.1-0.8c-0.1-0.2-0.2-0.3-0.4-0.4   c-0.2-0.1-0.4-0.1-0.8-0.1c0,0-0.1,0-0.1-0.1c0-0.1,0-0.1,0.1-0.1l1,0c0.6,0,1,0,1.3,0c0.5,0,1,0,1.5-0.1c0.6,0,1,0,1.3,0   c1.2,0,2.3,0.2,3.2,0.7c0.9,0.5,1.7,1.1,2.2,2c0.5,0.8,0.8,1.8,0.8,2.8c0,1.2-0.3,2.2-0.8,3.1c-0.5,0.9-1.3,1.6-2.2,2.1   c-0.9,0.5-1.9,0.7-3,0.7C128.7,23.8,128.3,23.8,127.7,23.8z M131,22.8c0.6-0.4,1-1,1.4-1.7c0.3-0.8,0.5-1.7,0.5-2.8   c0-1-0.2-1.9-0.5-2.8c-0.3-0.8-0.8-1.5-1.3-2c-0.6-0.5-1.2-0.7-2-0.7c-0.7,0-1.3,0.1-1.5,0.2c-0.3,0.1-0.4,0.5-0.4,0.9v8.1   c0,0.5,0.1,0.8,0.4,1c0.3,0.2,0.7,0.3,1.5,0.3C129.7,23.4,130.4,23.2,131,22.8z"/>
</g>
<g class="st4">
	<path class="st6" d="M57.3,33.4c0,0-0.1,0.1-0.1,0.1c-0.1,0-0.1,0-0.1-0.1c0.1-0.6,0.1-1.5,0.2-2.5s0.1-1.8,0.1-2.3   c0-0.1,0-0.1,0.1-0.1c0.1,0,0.1,0,0.1,0.1c0,0.4,0.5,0.5,1.4,0.5c1.4,0,3,0.1,4.8,0.1c0.9,0,1.9,0,3,0l1.6,0c0.6,0,1.1,0,1.3-0.1   s0.5-0.2,0.5-0.5c0-0.1,0.1-0.1,0.2-0.1c0.1,0,0.1,0,0.1,0.1c0,0.5-0.1,1.2-0.2,2.3c-0.1,1.1-0.1,1.9-0.1,2.5c0,0,0,0.1-0.1,0.1   c-0.1,0-0.1,0-0.1-0.1c-0.2-1.2-0.7-2.2-1.3-2.8c-0.7-0.6-1.5-0.9-2.4-0.9c-0.5,0-0.8,0.1-0.9,0.3c-0.2,0.2-0.2,0.6-0.2,1.1v11.1   c0,0.5,0,0.9,0.1,1.1c0.1,0.2,0.3,0.4,0.6,0.5s0.7,0.1,1.3,0.1c0,0,0.1,0,0.1,0.1s0,0.1-0.1,0.1c-0.6,0-1,0-1.4,0l-2,0l-1.9,0   c-0.3,0-0.8,0-1.4,0c0,0-0.1,0-0.1-0.1s0-0.1,0.1-0.1c0.6,0,1,0,1.3-0.1c0.3-0.1,0.5-0.2,0.6-0.5c0.1-0.2,0.2-0.6,0.2-1.1V31.1   c0-0.5-0.1-0.9-0.2-1.1s-0.4-0.3-0.9-0.3C59.5,29.7,58.2,30.9,57.3,33.4z"/>
	<path class="st6" d="M84.7,30.2c-0.4-0.5-0.9-0.7-1.6-0.7c0,0,0,0,0-0.1c0-0.1,0-0.1,0-0.1l1.2,0c0.6,0,1.1,0,1.5,0   c0.3,0,0.7,0,1.3,0l1.1,0c0,0,0,0,0,0.1c0,0.1,0,0.1,0,0.1c-0.6,0-1.1,0.2-1.5,0.7s-0.5,1.2-0.5,2v6.7c0,1.1-0.2,2.1-0.7,3   s-1.2,1.5-2.1,2c-0.9,0.5-1.9,0.7-3.1,0.7s-2.2-0.2-3.1-0.7c-0.9-0.4-1.6-1.1-2.1-2C74.3,41,74,40,74,38.8v-7.8   c0-0.5,0-0.8-0.1-1.1c-0.1-0.2-0.2-0.4-0.5-0.5s-0.6-0.1-1.1-0.1c0,0-0.1,0-0.1-0.1c0-0.1,0-0.1,0.1-0.1l1.3,0c0.7,0,1.3,0,1.8,0   c0.5,0,1.1,0,1.8,0l1.2,0c0,0,0.1,0,0.1,0.1c0,0.1,0,0.1-0.1,0.1c-0.5,0-0.9,0-1.1,0.1s-0.4,0.3-0.5,0.5c-0.1,0.2-0.1,0.6-0.1,1.1   V38c0,1.9,0.4,3.3,1.1,4.2c0.8,0.9,1.8,1.4,3.2,1.4c1.3,0,2.4-0.4,3.1-1.2c0.8-0.8,1.1-2,1.1-3.5v-6.7   C85.3,31.4,85.1,30.7,84.7,30.2z"/>
	<path class="st6" d="M89.6,33.4c0,0-0.1,0.1-0.1,0.1c-0.1,0-0.1,0-0.1-0.1c0.1-0.6,0.1-1.5,0.2-2.5s0.1-1.8,0.1-2.3   c0-0.1,0-0.1,0.1-0.1c0.1,0,0.1,0,0.1,0.1c0,0.4,0.5,0.5,1.4,0.5c1.4,0,3,0.1,4.8,0.1c0.9,0,1.9,0,3,0l1.6,0c0.6,0,1.1,0,1.3-0.1   s0.5-0.2,0.5-0.5c0-0.1,0.1-0.1,0.2-0.1c0.1,0,0.1,0,0.1,0.1c0,0.5-0.1,1.2-0.2,2.3c-0.1,1.1-0.1,1.9-0.1,2.5c0,0,0,0.1-0.1,0.1   c-0.1,0-0.1,0-0.1-0.1c-0.2-1.2-0.7-2.2-1.3-2.8c-0.7-0.6-1.5-0.9-2.4-0.9c-0.5,0-0.8,0.1-0.9,0.3c-0.2,0.2-0.2,0.6-0.2,1.1v11.1   c0,0.5,0,0.9,0.1,1.1c0.1,0.2,0.3,0.4,0.6,0.5c0.3,0.1,0.7,0.1,1.3,0.1c0,0,0.1,0,0.1,0.1s0,0.1-0.1,0.1c-0.6,0-1,0-1.4,0l-2,0   l-1.9,0c-0.3,0-0.8,0-1.4,0c0,0-0.1,0-0.1-0.1s0-0.1,0.1-0.1c0.6,0,1,0,1.3-0.1c0.3-0.1,0.5-0.2,0.6-0.5c0.1-0.2,0.2-0.6,0.2-1.1   V31.1c0-0.5-0.1-0.9-0.2-1.1s-0.4-0.3-0.9-0.3C91.8,29.7,90.5,30.9,89.6,33.4z"/>
	<path class="st6" d="M108.2,43.4c-1.2-0.7-2.1-1.6-2.7-2.8c-0.6-1.2-0.9-2.5-0.9-3.9c0-1.6,0.4-3.1,1.2-4.2s1.9-2.1,3.2-2.7   c1.3-0.6,2.6-0.9,4-0.9c1.5,0,2.9,0.4,4,1.1c1.2,0.7,2,1.7,2.7,2.8c0.6,1.2,0.9,2.4,0.9,3.7c0,1.5-0.4,2.8-1.2,4   c-0.8,1.2-1.8,2.2-3.1,2.9c-1.3,0.7-2.7,1.1-4.2,1.1C110.7,44.4,109.4,44.1,108.2,43.4z M115.4,43.1c0.7-0.5,1.3-1.3,1.7-2.3   c0.4-1,0.6-2.2,0.6-3.6c0-1.5-0.2-2.8-0.7-3.9s-1.1-2.1-1.9-2.7s-1.8-1-3-1c-1.5,0-2.6,0.5-3.4,1.6c-0.8,1.1-1.2,2.6-1.2,4.6   c0,1.6,0.2,2.9,0.7,4.2c0.5,1.2,1.1,2.2,1.9,2.9c0.8,0.7,1.8,1,2.8,1C113.9,43.8,114.7,43.6,115.4,43.1z"/>
	<path class="st6" d="M138.8,44c0,0.1,0,0.1,0,0.1h-4.3c-0.4,0-1-0.6-2-1.9s-2.1-3.1-3.5-5.3c-0.1,0-0.3,0-0.6,0c-0.6,0-1.1,0-1.3,0   v5.3c0,0.5,0,0.9,0.1,1.1c0.1,0.2,0.2,0.4,0.5,0.5c0.2,0.1,0.6,0.1,1.1,0.1c0,0,0,0,0,0.1s0,0.1,0,0.1c-0.5,0-0.9,0-1.2,0l-1.8,0   l-1.8,0c-0.3,0-0.8,0-1.3,0c0,0-0.1,0-0.1-0.1s0-0.1,0.1-0.1c0.5,0,0.9,0,1.1-0.1s0.4-0.2,0.5-0.5c0.1-0.2,0.1-0.6,0.1-1.1V31.1   c0-0.5,0-0.8-0.1-1.1c-0.1-0.2-0.2-0.4-0.5-0.5c-0.2-0.1-0.6-0.1-1.1-0.1c0,0,0,0,0-0.1c0-0.1,0-0.1,0-0.1l1.3,0c0.7,0,1.3,0,1.8,0   c0.5,0,1.1,0,1.7-0.1c0.2,0,0.5,0,0.8,0c0.3,0,0.7,0,1,0c1.5,0,2.6,0.3,3.4,0.8c0.8,0.5,1.2,1.3,1.2,2.2c0,0.9-0.2,1.7-0.7,2.4   c-0.5,0.7-1.1,1.3-1.9,1.7c1.3,1.9,2.4,3.4,3.2,4.5c0.9,1.1,1.6,1.9,2.3,2.4c0.7,0.5,1.3,0.7,2,0.7C138.8,43.9,138.8,43.9,138.8,44   z M128.6,36.3c0.9,0,1.6-0.3,2-0.8c0.4-0.5,0.6-1.4,0.6-2.5c0-1.3-0.2-2.2-0.6-2.7s-0.9-0.7-1.7-0.7c-0.6,0-1.1,0.1-1.4,0.4   c-0.3,0.2-0.4,0.6-0.4,1.2v5.1C127.6,36.3,128.1,36.3,128.6,36.3z"/>
	<path class="st6" d="M142.7,33.1c0.3,0.4,0.7,0.8,1.1,1.2c0.4,0.3,1,0.7,1.8,1.2c0.8,0.5,1.4,1,1.9,1.3c0.5,0.4,0.9,0.9,1.2,1.4   s0.5,1.2,0.5,1.9c0,0.8-0.2,1.6-0.7,2.2c-0.4,0.6-1.1,1.2-1.9,1.5c-0.8,0.4-1.7,0.5-2.7,0.5c-0.7,0-1.5-0.1-2.3-0.3   c-0.8-0.2-1.3-0.4-1.6-0.7c-0.1-0.1-0.1-0.1-0.2-0.2c0-0.1-0.1-0.1-0.1-0.3l-0.1-3.8v0c0-0.1,0-0.1,0.1-0.1s0.1,0,0.1,0.1   c0.5,1,0.9,1.8,1.3,2.4c0.4,0.6,0.8,1.1,1.4,1.6c0.6,0.5,1.2,0.7,1.9,0.7c0.6,0,1.2-0.2,1.6-0.5c0.4-0.3,0.6-0.9,0.6-1.8   c0-0.7-0.2-1.3-0.5-1.8c-0.3-0.5-0.7-1-1.1-1.3c-0.4-0.4-1.1-0.8-1.8-1.3c-0.8-0.5-1.4-0.9-1.8-1.3c-0.4-0.4-0.8-0.8-1.1-1.3   c-0.3-0.5-0.5-1.1-0.5-1.8c0-0.8,0.2-1.6,0.7-2.1s1.1-1,1.9-1.3c0.8-0.3,1.6-0.4,2.4-0.4c0.6,0,1.1,0.1,1.7,0.2   c0.6,0.1,1,0.2,1.4,0.4c0.1,0.1,0.2,0.1,0.3,0.2c0,0.1,0.1,0.2,0.1,0.3v3.5c0,0,0,0.1-0.1,0.1c-0.1,0-0.1,0-0.1,0l-0.2-0.5   c-0.4-1-0.9-1.9-1.4-2.6c-0.5-0.7-1.3-1.1-2.2-1.1c-0.6,0-1.2,0.2-1.6,0.6c-0.4,0.4-0.6,0.9-0.6,1.6   C142.3,32.1,142.4,32.7,142.7,33.1z"/>
</g>
</svg>
