<svg width="18" height="12" viewBox="0 0 18 12" fill="none" xmlns="http://www.w3.org/2000/svg">
<path fill-rule="evenodd" clip-rule="evenodd" d="M16.3785 1.95841V1.95842C15.8609 1.72537 15.2542 1.82376 14.8368 2.20842L13.0452 3.87508V2.66675C13.0452 1.28604 11.9259 0.166748 10.5452 0.166748H3.04517C1.66446 0.166748 0.545166 1.28604 0.545166 2.66675V9.33342C0.545166 10.7141 1.66446 11.8334 3.04517 11.8334H10.5452C11.9259 11.8334 13.0452 10.7141 13.0452 9.33342V8.12508L14.8452 9.79175C15.1102 10.0316 15.4544 10.1652 15.8118 10.1667C16.0102 10.1663 16.2062 10.1237 16.3868 10.0417C16.8896 9.83838 17.2191 9.35075 17.2202 8.80842V3.19175V3.19175C17.2177 2.64737 16.8845 2.15915 16.3785 1.95842L16.3785 1.95841ZM11.3785 9.33341C11.3785 9.79365 11.0054 10.1667 10.5452 10.1667H3.04517C2.58493 10.1667 2.21183 9.79365 2.21183 9.33341V2.66675C2.21183 2.20651 2.58493 1.83341 3.04517 1.83341H10.5452C11.0054 1.83341 11.3785 2.20651 11.3785 2.66675V9.33341ZM15.5463 8.16545L13.2047 5.99878L15.5463 3.83211V8.16545Z" fill="#1E90FF"/>
</svg>
