<svg width="20" height="20" viewBox="0 0 20 20" fill="none" xmlns="http://www.w3.org/2000/svg">
<path fill-rule="evenodd" clip-rule="evenodd" d="M14.4998 18.3333H14.4998C7.41599 18.3241 1.67567 12.5838 1.6665 5.49993C1.6665 3.38284 3.38275 1.6666 5.49984 1.6666V1.6666C5.71512 1.66496 5.93004 1.6845 6.1415 1.72493L6.1415 1.72493C6.34593 1.75518 6.54689 1.80542 6.7415 1.87493V1.87493C7.01999 1.97265 7.22603 2.21038 7.28317 2.49993L8.42483 7.49993C8.48736 7.7757 8.40578 8.06435 8.20817 8.2666C8.09983 8.38327 8.0915 8.3916 7.0665 8.92493C7.88733 10.7256 9.3275 12.1717 11.1248 12.9999C11.6665 11.9666 11.6748 11.9583 11.7915 11.8499C11.9937 11.6523 12.2824 11.5707 12.5582 11.6333L17.5582 12.7749C17.8382 12.8399 18.065 13.0446 18.1582 13.3166C18.2285 13.5144 18.2815 13.7179 18.3165 13.9249C18.35 14.1344 18.3668 14.3462 18.3665 14.5583V14.5583C18.3345 16.6656 16.6073 18.3518 14.4998 18.3333L14.4998 18.3333ZM5.49984 3.33326C4.30512 3.33783 3.33774 4.30521 3.33317 5.49993L3.33317 5.49931C3.33743 11.6646 8.33395 16.6616 14.4993 16.6666C15.694 16.662 16.6614 15.6946 16.6659 14.4999V14.2249L12.7999 13.3332L12.5582 13.7916C12.1832 14.5166 11.9082 15.0416 11.2082 14.7582C8.41164 13.7572 6.21419 11.5506 5.22487 8.7499C4.92487 8.0999 5.49154 7.7999 6.2082 7.4249L6.66654 7.1999L5.77487 3.33323L5.49984 3.33326Z" fill="#8FC8FF"/>
</svg>
