<svg id="Layer_1" data-name="Layer 1" xmlns="http://www.w3.org/2000/svg" viewBox="0 0 32 32"><defs><style>.cls-1{fill:#ff90a0;}</style></defs><title>share_profile_url</title><path class="cls-1" d="M25,14a1,1,0,0,0-1,1V27H5V8H17a1,1,0,0,0,0-2H4A1,1,0,0,0,3,7V28a1,1,0,0,0,1,1H25a1,1,0,0,0,1-1V15A1,1,0,0,0,25,14Z"/><path class="cls-1" d="M29,4a.83.83,0,0,0-.07-.34h0a0,0,0,0,1,0,0,1.27,1.27,0,0,0-.18-.27l-.08-.06a.6.6,0,0,0-.21-.14l-.09-.05A1,1,0,0,0,28,3H22a1,1,0,0,0,0,2h3.59L15.29,15.29a1,1,0,0,0,0,1.42,1,1,0,0,0,1.41,0l0,0L27,6.41V10a1,1,0,0,0,2,0V4S29,4,29,4Z"/></svg>