<svg width="20" height="21" viewBox="0 0 20 21" fill="none" xmlns="http://www.w3.org/2000/svg">
<path fill-rule="evenodd" clip-rule="evenodd" d="M15.5588 19.9999C15.3989 20.0006 15.2411 19.9629 15.0988 19.8899L9.99881 17.2199L4.89881 19.8899C4.40999 20.147 3.80534 19.9591 3.5483 19.4703C3.44499 19.2738 3.40998 19.0485 3.44881 18.8299L4.44881 13.1999L0.328812 9.19994H0.328812C0.066868 8.93854 -0.029304 8.55386 0.078812 8.19994L0.0788119 8.19994C0.197056 7.83737 0.511235 7.57361 0.888812 7.51994L6.58881 6.68994L9.09881 1.55994V1.55994C9.33955 1.06289 9.93765 0.855099 10.4347 1.09583C10.6372 1.19392 10.8007 1.35743 10.8988 1.55994L13.4388 6.67994L19.1388 7.50994C19.5164 7.56361 19.8306 7.82737 19.9488 8.18994C20.0569 8.54386 19.9608 8.92855 19.6988 9.18994L15.5788 13.1899L16.5788 18.8199C16.6517 19.2027 16.4956 19.593 16.1788 19.8199C15.9977 19.9468 15.7797 20.0101 15.5588 19.9999L15.5588 19.9999Z" fill="#1E90FF"/>
</svg>
