<svg width="20" height="20" viewBox="0 0 20 20" fill="none" xmlns="http://www.w3.org/2000/svg">
<path fill-rule="evenodd" clip-rule="evenodd" d="M9.60818 3.25002C11.4033 1.38555 14.3033 1.14298 16.3832 2.68335C16.5468 2.80977 16.7025 2.94613 16.8494 3.09165C18.8308 5.05445 18.846 8.25189 16.8832 10.2333L15.6998 11.4167L15.695 11.4215C15.3682 11.7456 14.8406 11.7435 14.5165 11.4167L14.5117 11.4118C14.1876 11.0851 14.1897 10.5574 14.5165 10.2333L15.6998 9.04168C15.7861 8.95694 15.8677 8.86757 15.9443 8.77396C17.11 7.34904 16.8998 5.24898 15.4748 4.08335C14.0706 2.98913 12.0666 3.13304 10.8332 4.41668L9.74984 5.50835L9.74501 5.51318C9.41824 5.83728 8.89061 5.83512 8.56651 5.50835C8.54562 5.4851 8.52595 5.46078 8.50758 5.4355C8.2126 5.02973 8.30241 4.46166 8.70818 4.16668L9.60818 3.25002ZM11.0735 7.74174L7.74015 11.0751C7.41338 11.3992 7.41122 11.9268 7.73532 12.2536L7.74015 12.2584C8.06425 12.5852 8.59188 12.5873 8.91865 12.2632L8.92348 12.2584L12.2568 8.92507C12.5836 8.5983 12.5836 8.06851 12.2568 7.74174C11.93 7.41497 11.4003 7.41497 11.0735 7.74174ZM10.2332 14.5L9.16651 15.5584C7.9268 16.8358 5.92575 16.9792 4.51651 15.8917C3.09578 14.721 2.8931 12.6202 4.06383 11.1994C4.13546 11.1125 4.21145 11.0293 4.29151 10.95L5.47485 9.75836C5.80162 9.43426 5.80378 8.90663 5.47968 8.57986L5.47485 8.57503C5.15075 8.24826 4.62311 8.2461 4.29635 8.5702L4.29151 8.57503L3.23318 9.6417C1.38929 11.4273 1.15066 14.3015 2.67485 16.3667C4.37757 18.5756 7.54861 18.986 9.75756 17.2833C9.92465 17.1545 10.0835 17.0154 10.2332 16.8667L11.4165 15.6834C11.7433 15.3566 11.7433 14.8268 11.4165 14.5C11.0897 14.1733 10.5599 14.1733 10.2332 14.5Z" fill="#8FC8FF"/>
</svg>
