<svg version="1.0" xmlns="http://www.w3.org/2000/svg" viewBox="0 0 516 492"><path d="M267.8.7c.7.3 1.6.2 1.9-.1.4-.3-.2-.6-1.3-.5-1.1 0-1.4.3-.6.6zm22 0c.7.3 1.6.2 1.9-.1.4-.3-.2-.6-1.3-.5-1.1 0-1.4.3-.6.6zM22.1 229.6c0 1.1.3 1.4.6.6.3-.7.2-1.6-.1-1.9-.3-.4-.6.2-.5 1.3zm.1 19.4c0 1.4.2 1.9.5 1.2.2-.6.2-1.8 0-2.5-.3-.6-.5-.1-.5 1.3zm243.6 218.7c1.7.2 4.7.2 6.5 0 1.7-.2.3-.4-3.3-.4-3.6 0-5 .2-3.2.4z" fill="#FFEDF0" fill-opacity=".4"/><path d="M272.3.7c.9.2 2.3.2 3 0 .6-.3-.1-.5-1.8-.5-1.6 0-2.2.2-1.2.5zm10.5 0c1.2.2 3 .2 4 0 .9-.3-.1-.5-2.3-.4-2.2 0-3 .2-1.7.4zm14 17c.7.3 1.6.2 1.9-.1.4-.3-.2-.6-1.3-.5-1.1 0-1.4.3-.6.6zM22.1 225.6c0 1.1.3 1.4.6.6.3-.7.2-1.6-.1-1.9-.3-.4-.6.2-.5 1.3zm236.7 242.1c.6.2 1.8.2 2.5 0 .6-.3.1-.5-1.3-.5-1.4 0-1.9.2-1.2.5zm18 0c.7.3 1.6.2 1.9-.1.4-.3-.2-.6-1.3-.5-1.1 0-1.4.3-.6.6zm-50 24c.7.3 1.6.2 1.9-.1.4-.3-.2-.6-1.3-.5-1.1 0-1.4.3-.6.6z" fill="#FFEBED" fill-opacity=".8"/><path d="m79.9 85.7-3.4 3.8 3.8-3.4c3.4-3.3 4.2-4.1 3.4-4.1-.2 0-1.9 1.7-3.8 3.7zM84 404.5c1.3 1.4 2.6 2.5 2.8 2.5.3 0-.5-1.1-1.8-2.5s-2.6-2.5-2.8-2.5c-.3 0 .5 1.1 1.8 2.5z" fill="#FEE9EB" fill-opacity=".93"/><path d="M277.8.7c.6.2 1.8.2 2.5 0 .6-.3.1-.5-1.3-.5-1.4 0-1.9.2-1.2.5zM467.5 62c1 1.1 2 2 2.3 2 .3 0-.3-.9-1.3-2s-2-2-2.3-2c-.3 0 .3.9 1.3 2zm-21 21c1 1.1 2 2 2.3 2 .3 0-.3-.9-1.3-2s-2-2-2.3-2c-.3 0 .3.9 1.3 2zM64.4 102.2l-1.9 2.3 2.3-1.9c2.1-1.8 2.7-2.6 1.9-2.6-.2 0-1.2 1-2.3 2.2zm-10.5 11.5c-1.3 1.6-1.2 1.7.4.4 1.6-1.3 2.1-2.1 1.3-2.1-.2 0-1 .8-1.7 1.7zm4 3c-1.3 1.6-1.2 1.7.4.4 1.6-1.3 2.1-2.1 1.3-2.1-.2 0-1 .8-1.7 1.7zM22.1 255.6c0 1.1.3 1.4.6.6.3-.7.2-1.6-.1-1.9-.3-.4-.6.2-.5 1.3zM79.5 400c1 1.1 2 2 2.3 2 .3 0-.3-.9-1.3-2s-2-2-2.3-2c-.3 0 .3.9 1.3 2zm369.4.7-2.4 2.8 2.8-2.4c1.5-1.4 2.7-2.6 2.7-2.8 0-.8-.8-.1-3.1 2.4zm-10.9 2.8c-2.4 2.5-4.2 4.5-3.9 4.5.3 0 2.5-2 4.9-4.5 2.4-2.5 4.2-4.5 3.9-4.5-.3 0-2.5 2-4.9 4.5zM88.5 409c1 1.1 2 2 2.3 2 .3 0-.3-.9-1.3-2s-2-2-2.3-2c-.3 0 .3.9 1.3 2zm345.9 6.2-1.9 2.3 2.3-1.9c1.2-1.1 2.2-2.1 2.2-2.3 0-.8-.8-.2-2.6 1.9zM63.5 430c2.7 2.7 5.1 5 5.4 5 .3 0-1.7-2.3-4.4-5-2.7-2.8-5.1-5-5.4-5-.3 0 1.7 2.2 4.4 5zm217.3 37.7c.7.3 1.6.2 1.9-.1.4-.3-.2-.6-1.3-.5-1.1 0-1.4.3-.6.6z" fill="#FFE7EA"/><path d="M248.5 2.5c-17.4 2.3-34.6 5.6-46.8 9.1-44.5 12.7-89.5 41.2-127.1 80.5-24.8 25.9-40.8 45.3-48.1 58.4-25.1 44.8-32.5 117-18 175.9 10.5 42.7 30.4 78.8 58.1 105.7 14.4 13.9 24.9 21.1 44.6 31 29.5 14.9 54.5 21.8 94.8 26.5 17.6 2.1 55 2.4 69.5.5 52.8-6.7 98.5-25.5 138.8-57.3 14.9-11.7 45.5-42.9 56.3-57.3 24.4-32.7 36.7-60.4 43.1-97 2.6-15.4 2.4-52.7-.6-75-4.3-33.1-11-61.4-22.6-95.5-11-32.3-20.4-47.6-32-51.9-3-1.1-11.4-2.8-18.7-3.7-7.3-.9-13.6-1.8-14-2-2.1-1.3-10 5.4-16.3 13.8l-2.7 3.8 2.8 1.1c1.6.6 7.6 2.2 13.4 3.5 15.4 3.6 18.9 5.2 24.6 11 7.1 7.3 13.8 21.2 22.3 46.9 11.4 34.6 20 73.1 23 103.9 1.6 16.2 1.4 45.4-.5 59.8-7.7 59.4-42.4 110.6-95.4 140.7-56 31.8-123.2 40.5-200.1 26.1-36.9-6.9-75.7-24.7-102.1-46.7-36.1-30.1-63.1-82-70.4-135.8-2.2-16.1-2.5-58-.6-72.5 5-37 15.1-65.4 29.9-84 9.5-11.9 42.2-44.5 51.7-51.5 13.4-9.9 27.4-18.3 45.1-27 26.2-12.9 42.3-17.7 80.1-23.7 12.3-2 17.6-2.2 46.9-2.2 37.7 0 52.6 1.3 74.8 6.8 15.7 3.8 16 3.8 22.7-4.6l4.2-5.3-4.4-1.3C343.6 4 319.1.9 279.6 1.1c-11.6.1-25.6.7-31.1 1.4z" fill="#FFE3E7"/><path d="m441.5 408.2-5 5.3 5.3-5c2.8-2.7 5.2-5.1 5.2-5.2 0-.8-.9.1-5.5 4.9z" fill="#FFE5E9"/><path d="M415.9 55.7c-1.3 1.6-1.2 1.7.4.4 1.6-1.3 2.1-2.1 1.3-2.1-.2 0-1 .8-1.7 1.7zm-331 25c-1.3 1.6-1.2 1.7.4.4.9-.7 1.7-1.5 1.7-1.7 0-.8-.8-.3-2.1 1.3zm-10 10c-1.3 1.6-1.2 1.7.4.4.9-.7 1.7-1.5 1.7-1.7 0-.8-.8-.3-2.1 1.3z" fill="#FFF0F0" fill-opacity=".27"/></svg>